<svg id="logo" width="170" height="35" viewBox="0 0 175 37" fill="none" xmlns="http://www.w3.org/2000/svg">
    <path d="M29 15.5484C29 13.7692 29.365 12.0074 30.0743 10.3637C30.7836 8.7198 31.8231 7.22629 33.1337 5.96824C35.7801 3.42741 39.3699 2 43.1129 2C46.8559 2 50.4457 3.42741 53.0921 5.96824C55.7389 8.50907 57.2258 11.955 57.2258 15.5484H48.4052C48.4052 14.2009 47.8478 12.9087 46.8551 11.9558C45.8627 11.0031 44.5166 10.4677 43.1129 10.4677C41.7092 10.4677 40.3631 11.0031 39.3704 11.9558C38.378 12.9087 37.8206 14.2009 37.8206 15.5484H29Z" fill="#5F2EEA" stroke="#14142B" stroke-width="0.01"/>
    <path d="M43.1129 20.0645C45.2953 20.0645 47.0645 18.2954 47.0645 16.1129C47.0645 13.9305 45.2953 12.1613 43.1129 12.1613C40.9305 12.1613 39.1613 13.9305 39.1613 16.1129C39.1613 18.2954 40.9305 20.0645 43.1129 20.0645Z" fill="#EFF0F7"/>
    <path d="M29 16.6775C29 20.2708 30.4869 23.7168 33.1337 26.2577C35.7801 28.7985 39.3699 30.2259 43.1129 30.2259C46.8559 30.2259 50.4457 28.7985 53.0921 26.2577C55.7389 23.7168 57.2258 20.2708 57.2258 16.6775H48.4052C48.4052 18.025 47.8478 19.3172 46.8551 20.2701C45.8627 21.2228 44.5166 21.7581 43.1129 21.7581C41.7092 21.7581 40.3631 21.2228 39.3704 20.2701C38.378 19.3172 37.8206 18.025 37.8206 16.6775H29Z" fill="#EFF0F7" stroke="#14142B" stroke-width="0.01"/>
    <path d="M3.6413 27.7516V4.85482C3.6413 4.74191 3.67517 4.65159 3.74291 4.58385C3.83323 4.49353 3.93484 4.44836 4.04775 4.44836H21.9316C22.0445 4.44836 22.1348 4.49353 22.2026 4.58385C22.2929 4.65159 22.3381 4.74191 22.3381 4.85482V9.83385C22.3381 10.15 22.2365 10.4322 22.0332 10.6806L17.0881 17.15C16.7945 17.5113 16.4219 17.6919 15.9703 17.6919H11.6687C11.5332 17.6919 11.4316 17.6468 11.3639 17.5564C11.3187 17.4435 11.3413 17.3306 11.4316 17.2177L17.9348 8.74998H7.97678V27.7516C7.97678 28.0226 7.83001 28.1581 7.53646 28.1581H4.04775C3.93484 28.1581 3.83323 28.1242 3.74291 28.0564C3.67517 27.9661 3.6413 27.8645 3.6413 27.7516ZM69.532 16.1339L78.0336 5.05804C78.3272 4.69675 78.6998 4.51611 79.1514 4.51611H83.453C83.5885 4.51611 83.6788 4.57256 83.7239 4.68546C83.7917 4.77578 83.7917 4.8774 83.7239 4.9903L74.9852 16.371L83.6901 27.7516C83.7804 27.8645 83.7917 27.9774 83.7239 28.0903C83.6788 28.1806 83.5885 28.2258 83.453 28.2258H79.1514C78.6998 28.2258 78.3272 28.0452 78.0336 27.6839L69.532 16.6419C69.4191 16.4613 69.4191 16.2919 69.532 16.1339ZM63.8417 4.92256C63.8417 4.80965 63.8756 4.71933 63.9433 4.65159C64.0336 4.56127 64.1352 4.51611 64.2481 4.51611H67.7368C68.0304 4.51611 68.1772 4.65159 68.1772 4.92256V27.8193C68.1772 28.0903 68.0304 28.2258 67.7368 28.2258H64.2481C64.1352 28.2258 64.0336 28.1919 63.9433 28.1242C63.8756 28.0339 63.8417 27.9323 63.8417 27.8193V4.92256ZM86.8068 4.51611H102.489C102.625 4.51611 102.715 4.57256 102.76 4.68546C102.828 4.77578 102.816 4.8774 102.726 4.9903L100.22 8.27579C99.9261 8.63708 99.5535 8.81772 99.1019 8.81772H90.7358V14.2371H99.2035C99.4745 14.2371 99.61 14.3726 99.61 14.6435V18.0984C99.61 18.3919 99.4745 18.5387 99.2035 18.5387H90.7358V23.9242H101.439C101.552 23.9242 101.642 23.9693 101.71 24.0597C101.8 24.1274 101.845 24.2177 101.845 24.3306V27.8193C101.845 28.0903 101.71 28.2258 101.439 28.2258H86.8068C86.6939 28.2258 86.5922 28.1919 86.5019 28.1242C86.4342 28.0339 86.4003 27.9323 86.4003 27.8193V4.92256C86.4003 4.80965 86.4342 4.71933 86.5019 4.65159C86.5922 4.56127 86.6939 4.51611 86.8068 4.51611ZM107.669 4.92256C107.669 4.80965 107.703 4.71933 107.77 4.65159C107.861 4.56127 107.962 4.51611 108.075 4.51611H115.628C117.254 4.51611 118.778 4.82095 120.201 5.43062C121.624 6.0403 122.866 6.87579 123.927 7.93708C124.988 8.97579 125.835 10.2064 126.467 11.629C127.122 13.029 127.461 14.5306 127.483 16.1339C127.528 17.8048 127.224 19.3742 126.569 20.8419C125.936 22.3097 125.067 23.5968 123.961 24.7032C122.854 25.7871 121.556 26.6452 120.066 27.2774C118.598 27.9097 117.028 28.2258 115.357 28.2258H108.075C107.962 28.2258 107.861 28.1919 107.77 28.1242C107.703 28.0339 107.669 27.9323 107.669 27.8193V4.92256ZM112.004 23.9242H115.628C116.667 23.9242 117.638 23.7323 118.541 23.3484C119.467 22.9419 120.269 22.4 120.946 21.7226C121.646 21.0226 122.188 20.221 122.572 19.3177C122.978 18.3919 123.182 17.4097 123.182 16.371C123.182 15.3322 122.978 14.3613 122.572 13.458C122.188 12.5322 121.646 11.7306 120.946 11.0532C120.269 10.3532 119.467 9.81127 118.541 9.4274C117.638 9.02095 116.667 8.81772 115.628 8.81772H112.004V23.9242ZM131.825 4.51611H147.507C147.642 4.51611 147.733 4.57256 147.778 4.68546C147.846 4.77578 147.834 4.8774 147.744 4.9903L145.238 8.27579C144.944 8.63708 144.571 8.81772 144.12 8.81772H135.754V14.2371H144.221C144.492 14.2371 144.628 14.3726 144.628 14.6435V18.0984C144.628 18.3919 144.492 18.5387 144.221 18.5387H135.754V23.9242H146.457C146.57 23.9242 146.66 23.9693 146.728 24.0597C146.818 24.1274 146.863 24.2177 146.863 24.3306V27.8193C146.863 28.0903 146.728 28.2258 146.457 28.2258H131.825C131.712 28.2258 131.61 28.1919 131.52 28.1242C131.452 28.0339 131.418 27.9323 131.418 27.8193V4.92256C131.418 4.80965 131.452 4.71933 131.52 4.65159C131.61 4.56127 131.712 4.51611 131.825 4.51611ZM150.519 27.6839L159.258 16.3032L150.519 4.92256C150.429 4.83224 150.418 4.73062 150.485 4.61772C150.553 4.50482 150.643 4.44836 150.756 4.44836H155.058C155.509 4.44836 155.882 4.62901 156.176 4.9903L162.069 12.6451L167.929 4.9903C168.222 4.62901 168.595 4.44836 169.047 4.44836H173.348C173.484 4.44836 173.574 4.50482 173.619 4.61772C173.687 4.73062 173.676 4.83224 173.585 4.92256L164.847 16.3032L173.585 27.6839C173.676 27.7968 173.687 27.9097 173.619 28.0226C173.574 28.1129 173.484 28.1581 173.348 28.1581H169.047C168.595 28.1581 168.222 27.9774 167.929 27.6161L162.069 19.9613L156.176 27.6161C155.882 27.9774 155.509 28.1581 155.058 28.1581H150.756C150.643 28.1581 150.553 28.1129 150.485 28.0226C150.418 27.9097 150.429 27.7968 150.519 27.6839Z" fill="#EFF0F7"/>
</svg>
