<svg id="logo" width="175" height="37" viewBox="0 0 175 37" fill="none" xmlns="http://www.w3.org/2000/svg">
    <path d="M29 15.5484C29 13.7692 29.365 12.0074 30.0743 10.3637C30.7836 8.7198 31.8231 7.22629 33.1337 5.96824C35.7801 3.42741 39.3699 2 43.1129 2C46.8559 2 50.4457 3.42741 53.0921 5.96824C55.7389 8.50907 57.2258 11.955 57.2258 15.5484H48.4052C48.4052 14.2009 47.8478 12.9087 46.8551 11.9558C45.8627 11.0031 44.5166 10.4677 43.1129 10.4677C41.7092 10.4677 40.3631 11.0031 39.3704 11.9558C38.378 12.9087 37.8206 14.2009 37.8206 15.5484H29Z" fill="#5F2EEA" stroke="#14142B" stroke-width="0.01"/>
    <path d="M43.1127 20.0645C45.2951 20.0645 47.0643 18.2954 47.0643 16.1129C47.0643 13.9305 45.2951 12.1613 43.1127 12.1613C40.9303 12.1613 39.1611 13.9305 39.1611 16.1129C39.1611 18.2954 40.9303 20.0645 43.1127 20.0645Z" fill="#2A00A2"/>
    <path d="M29 16.6775C29 20.2708 30.4869 23.7168 33.1337 26.2577C35.7801 28.7985 39.3699 30.2259 43.1129 30.2259C46.8559 30.2259 50.4457 28.7985 53.0921 26.2577C55.7389 23.7168 57.2258 20.2708 57.2258 16.6775H48.4052C48.4052 18.025 47.8478 19.3172 46.8551 20.2701C45.8627 21.2228 44.5166 21.7581 43.1129 21.7581C41.7092 21.7581 40.3631 21.2228 39.3704 20.2701C38.378 19.3172 37.8206 18.025 37.8206 16.6775H29Z" fill="#5F2EEA" stroke="#5F2EEA" stroke-width="0.01"/>
    <path d="M3.64111 27.7516V4.85482C3.64111 4.74191 3.67498 4.65159 3.74273 4.58385C3.83305 4.49353 3.93466 4.44836 4.04756 4.44836H21.9314C22.0443 4.44836 22.1347 4.49353 22.2024 4.58385C22.2927 4.65159 22.3379 4.74191 22.3379 4.85482V9.83385C22.3379 10.15 22.2363 10.4322 22.033 10.6806L17.0879 17.15C16.7943 17.5113 16.4218 17.6919 15.9701 17.6919H11.6685C11.533 17.6919 11.4314 17.6468 11.3637 17.5564C11.3185 17.4435 11.3411 17.3306 11.4314 17.2177L17.9347 8.74998H7.9766V27.7516C7.9766 28.0226 7.82982 28.1581 7.53627 28.1581H4.04756C3.93466 28.1581 3.83305 28.1242 3.74273 28.0564C3.67498 27.9661 3.64111 27.8645 3.64111 27.7516ZM69.5318 16.1339L78.0334 5.05804C78.327 4.69675 78.6996 4.51611 79.1512 4.51611H83.4528C83.5883 4.51611 83.6786 4.57256 83.7238 4.68546C83.7915 4.77578 83.7915 4.8774 83.7238 4.9903L74.9851 16.371L83.6899 27.7516C83.7802 27.8645 83.7915 27.9774 83.7238 28.0903C83.6786 28.1806 83.5883 28.2258 83.4528 28.2258H79.1512C78.6996 28.2258 78.327 28.0452 78.0334 27.6839L69.5318 16.6419C69.4189 16.4613 69.4189 16.2919 69.5318 16.1339ZM63.8415 4.92256C63.8415 4.80965 63.8754 4.71933 63.9431 4.65159C64.0334 4.56127 64.135 4.51611 64.248 4.51611H67.7367C68.0302 4.51611 68.177 4.65159 68.177 4.92256V27.8193C68.177 28.0903 68.0302 28.2258 67.7367 28.2258H64.248C64.135 28.2258 64.0334 28.1919 63.9431 28.1242C63.8754 28.0339 63.8415 27.9323 63.8415 27.8193V4.92256ZM86.8066 4.51611H102.489C102.624 4.51611 102.715 4.57256 102.76 4.68546C102.828 4.77578 102.816 4.8774 102.726 4.9903L100.219 8.27579C99.9259 8.63708 99.5534 8.81772 99.1017 8.81772H90.7356V14.2371H99.2033C99.4743 14.2371 99.6098 14.3726 99.6098 14.6435V18.0984C99.6098 18.3919 99.4743 18.5387 99.2033 18.5387H90.7356V23.9242H101.439C101.552 23.9242 101.642 23.9693 101.71 24.0597C101.8 24.1274 101.845 24.2177 101.845 24.3306V27.8193C101.845 28.0903 101.71 28.2258 101.439 28.2258H86.8066C86.6937 28.2258 86.5921 28.1919 86.5017 28.1242C86.434 28.0339 86.4001 27.9323 86.4001 27.8193V4.92256C86.4001 4.80965 86.434 4.71933 86.5017 4.65159C86.5921 4.56127 86.6937 4.51611 86.8066 4.51611ZM107.669 4.92256C107.669 4.80965 107.702 4.71933 107.77 4.65159C107.86 4.56127 107.962 4.51611 108.075 4.51611H115.628C117.254 4.51611 118.778 4.82095 120.201 5.43062C121.623 6.0403 122.865 6.87579 123.927 7.93708C124.988 8.97579 125.835 10.2064 126.467 11.629C127.122 13.029 127.46 14.5306 127.483 16.1339C127.528 17.8048 127.223 19.3742 126.569 20.8419C125.936 22.3097 125.067 23.5968 123.96 24.7032C122.854 25.7871 121.556 26.6452 120.065 27.2774C118.598 27.9097 117.028 28.2258 115.357 28.2258H108.075C107.962 28.2258 107.86 28.1919 107.77 28.1242C107.702 28.0339 107.669 27.9323 107.669 27.8193V4.92256ZM112.004 23.9242H115.628C116.667 23.9242 117.638 23.7323 118.541 23.3484C119.467 22.9419 120.269 22.4 120.946 21.7226C121.646 21.0226 122.188 20.221 122.572 19.3177C122.978 18.3919 123.181 17.4097 123.181 16.371C123.181 15.3322 122.978 14.3613 122.572 13.458C122.188 12.5322 121.646 11.7306 120.946 11.0532C120.269 10.3532 119.467 9.81127 118.541 9.4274C117.638 9.02095 116.667 8.81772 115.628 8.81772H112.004V23.9242ZM131.824 4.51611H147.507C147.642 4.51611 147.733 4.57256 147.778 4.68546C147.845 4.77578 147.834 4.8774 147.744 4.9903L145.237 8.27579C144.944 8.63708 144.571 8.81772 144.12 8.81772H135.754V14.2371H144.221C144.492 14.2371 144.628 14.3726 144.628 14.6435V18.0984C144.628 18.3919 144.492 18.5387 144.221 18.5387H135.754V23.9242H146.457C146.57 23.9242 146.66 23.9693 146.728 24.0597C146.818 24.1274 146.863 24.2177 146.863 24.3306V27.8193C146.863 28.0903 146.728 28.2258 146.457 28.2258H131.824C131.712 28.2258 131.61 28.1919 131.52 28.1242C131.452 28.0339 131.418 27.9323 131.418 27.8193V4.92256C131.418 4.80965 131.452 4.71933 131.52 4.65159C131.61 4.56127 131.712 4.51611 131.824 4.51611ZM150.519 27.6839L159.258 16.3032L150.519 4.92256C150.429 4.83224 150.417 4.73062 150.485 4.61772C150.553 4.50482 150.643 4.44836 150.756 4.44836H155.058C155.509 4.44836 155.882 4.62901 156.175 4.9903L162.069 12.6451L167.929 4.9903C168.222 4.62901 168.595 4.44836 169.046 4.44836H173.348C173.484 4.44836 173.574 4.50482 173.619 4.61772C173.687 4.73062 173.675 4.83224 173.585 4.92256L164.846 16.3032L173.585 27.6839C173.675 27.7968 173.687 27.9097 173.619 28.0226C173.574 28.1129 173.484 28.1581 173.348 28.1581H169.046C168.595 28.1581 168.222 27.9774 167.929 27.6161L162.069 19.9613L156.175 27.6161C155.882 27.9774 155.509 28.1581 155.058 28.1581H150.756C150.643 28.1581 150.553 28.1129 150.485 28.0226C150.417 27.9097 150.429 27.7968 150.519 27.6839Z" fill="#14142B"/>
</svg>
