<svg xmlns="http://www.w3.org/2000/svg" xmlns:xlink="http://www.w3.org/1999/xlink">

<symbol id="bug-type" width="30" height="30" viewBox="0 0 14 17" fill="none" xmlns="http://www.w3.org/2000/svg">
    <path fill-rule="evenodd" clip-rule="evenodd" d="M9.35474 0.320917C9.59229 -0.018348 10.0599 -0.100799 10.3992 0.136757C10.7384 0.374313 10.8209 0.841919 10.5833 1.18118L9.36785 2.91707C10.1573 3.16931 10.6952 3.44138 10.6952 3.44138C10.6952 3.44138 9.3805 5.70286 7.15057 5.70286C4.92063 5.70286 3.33609 3.5951 3.33609 3.5951C3.33609 3.5951 3.89793 3.23654 4.73079 2.92901L3.40733 1.35176C3.1411 1.03449 3.18249 0.561477 3.49976 0.295256C3.81703 0.0290351 4.29004 0.0704182 4.55626 0.387688L6.24914 2.40519C6.28276 2.44525 6.31148 2.4878 6.33535 2.5321C6.5344 2.50893 6.73737 2.49593 6.94225 2.49593C7.22964 2.49593 7.51669 2.51793 7.79681 2.55523C7.81086 2.52898 7.82663 2.50328 7.84413 2.47828L9.35474 0.320917ZM3.7956 5.80995C3.20052 5.38495 2.30007 4.27568 2.30007 4.27568C2.30007 4.27568 0 6.09834 0 9.96309C0 13.8278 3.97643 16.1538 3.97643 16.1538C3.97643 16.1538 5.8763 14.2352 6.3427 11.803C6.8091 9.3708 5.65279 6.67014 5.65279 6.67014C5.65279 6.67014 4.39068 6.23494 3.7956 5.80995ZM10.2044 5.80995C10.7995 5.38495 11.6999 4.27568 11.6999 4.27568C11.6999 4.27568 14 6.09834 14 9.96309C14 13.8278 10.0236 16.1538 10.0236 16.1538C10.0236 16.1538 8.1237 14.2352 7.6573 11.803C7.1909 9.3708 8.34721 6.67014 8.34721 6.67014C8.34721 6.67014 9.60932 6.23494 10.2044 5.80995Z" fill="white"/>
</symbol>


<symbol id="dark-type"  width="30" height="30" viewBox="0 0 75 103" fill="none" xmlns="http://www.w3.org/2000/svg">
<path fill-rule="evenodd" clip-rule="evenodd" d="M74.9993 51.8183C74.9993 79.9346 52.2066 102.727 24.0902 102.727C15.6546 102.727 7.6982 100.676 0.692383 97.0437C7.30111 96.7819 13.4917 94.6008 18.8648 90.9645C20.7986 91.2605 22.7804 91.4139 24.7971 91.4139C46.2749 91.4139 63.6858 74.003 63.6858 52.5252C63.6858 31.0474 46.2749 13.6365 24.7971 13.6365C23.3564 13.6365 21.9339 13.715 20.5331 13.8677C14.7899 9.51645 7.99638 6.88227 0.692383 6.59282C7.6982 2.96082 15.6546 0.90918 24.0902 0.90918C52.2066 0.90918 74.9993 23.7019 74.9993 51.8183Z" fill="white"/>
</symbol>


<symbol id="fire-type" width="30" height="30" viewBox="0 0 12 15" fill="none" xmlns="http://www.w3.org/2000/svg">
<path fill-rule="evenodd" clip-rule="evenodd" d="M8.4855 11.44C8.66854 10.7708 8.31326 9.39488 8.31326 9.39488C8.31326 9.39488 8.05559 10.5157 7.65294 10.93C7.30945 11.2834 6.88862 11.5285 6.28505 11.5929C6.77851 11.3532 7.11789 10.8534 7.11789 10.2757C7.11789 9.46487 6.44918 8.80752 5.62429 8.80752C4.7994 8.80752 4.13069 9.46487 4.13069 10.2757C4.13069 10.4972 4.18058 10.7072 4.2699 10.8955C3.75397 10.4845 3.67283 9.82554 3.67283 9.82554C3.67283 9.82554 3.09673 12.2174 4.68417 13.3426C6.2716 14.4678 9.38129 13.5006 9.38129 13.5006C9.38129 13.5006 4.93112 16.6319 1.6335 13.2239C-1.20715 10.2882 0.892078 6.42324 0.892078 6.42324C0.892078 6.42324 0.801417 6.78178 0.801417 7.19799C0.801417 7.6142 1.02708 7.93087 1.02708 7.93087C1.02708 7.93087 1.70021 6.51202 2.22408 5.935C2.71988 5.38892 3.34139 4.946 3.8782 4.56345C4.29144 4.26896 4.65448 4.01024 4.87133 3.76777C6.06559 2.43238 5.33332 0 5.33332 0C5.33332 0 6.67958 1.18684 7.05542 2.71965C7.19869 3.30394 7.10653 3.96874 7.02411 4.56323C6.89031 5.52832 6.7822 6.30814 7.74871 6.25754C9.31058 6.17577 7.95337 3.76777 7.95337 3.76777C7.95337 3.76777 11.4963 5.6299 11.2316 8.88668C10.9669 12.1435 7.35901 12.8839 7.35901 12.8839C7.35901 12.8839 8.30245 12.1093 8.4855 11.44Z" fill="white"/>
</symbol>


<symbol id="flying-type" width="30" height="30" viewBox="0 0 15 13" fill="none" xmlns="http://www.w3.org/2000/svg">
<ellipse cx="7.5" cy="6.5" rx="7.5" ry="6.5" fill="white"/>
</symbol>


<symbol id="normal-type" width="30" height="30" viewBox="0 0 14 14" fill="none" xmlns="http://www.w3.org/2000/svg">
<path fill-rule="evenodd" clip-rule="evenodd" d="M7 14C10.866 14 14 10.866 14 7C14 3.13401 10.866 0 7 0C3.13401 0 0 3.13401 0 7C0 10.866 3.13401 14 7 14ZM7 11C9.20914 11 11 9.20914 11 7C11 4.79086 9.20914 3 7 3C4.79086 3 3 4.79086 3 7C3 9.20914 4.79086 11 7 11Z" fill="white"/>
</symbol>


<symbol id="poison-type" width="30" height="30" viewBox="0 0 15 15" fill="none" xmlns="http://www.w3.org/2000/svg">
<path fill-rule="evenodd" clip-rule="evenodd" d="M4.14474 15C4.85302 15 5.47417 14.4995 5.82237 13.7477C6.17057 14.4995 6.79171 15 7.5 15C8.14563 15 8.71886 14.5841 9.07895 13.9411C9.43904 14.5841 10.0123 15 10.6579 15C11.7479 15 12.6316 13.8145 12.6316 12.3521C12.6316 12.064 12.5973 11.7866 12.5338 11.5268C14.0485 10.3156 15 8.56571 15 6.61964C15 2.96371 11.6421 0 7.5 0C3.35786 0 0 2.96371 0 6.61964C0 8.49546 0.883997 10.189 2.30436 11.3936C2.21828 11.6908 2.17105 12.0141 2.17105 12.3521C2.17105 13.8145 3.0547 15 4.14474 15ZM7.40132 10.1117C9.8539 10.1117 11.8421 8.607 11.8421 6.75091C11.8421 4.89483 9.8539 3.39017 7.40132 3.39017C4.94874 3.39017 2.96053 4.89483 2.96053 6.75091C2.96053 8.607 4.94874 10.1117 7.40132 10.1117Z" fill="white"/>
</symbol>


<!-- /// -->


<symbol id="dragon-type" width="30" height="30" viewBox="0 0 14 16" fill="none" xmlns="http://www.w3.org/2000/svg">
<path fill-rule="evenodd" clip-rule="evenodd" d="M7.78042 7.96505C7.88884 7.8989 7.98085 7.76033 8.05505 7.60633C9.03147 8.00542 9.71761 8.9484 9.71761 10.0481C9.71761 11.5091 8.50668 12.6934 7.01294 12.6934C6.39975 12.6934 5.83423 12.4938 5.38056 12.1575C5.23175 12.087 5.10931 12.0193 5.00911 11.9639C4.85371 11.878 4.75181 11.8217 4.68799 11.8305C4.50144 11.8562 4.55562 12.0278 4.60482 12.1837C4.63825 12.2896 4.66939 12.3883 4.62119 12.429C4.57073 12.4716 4.40736 12.3158 4.21646 12.1338C3.9566 11.886 3.64571 11.5896 3.49913 11.6787C3.38321 11.7491 3.49574 11.94 3.63348 12.1738L3.64371 12.1911C3.70191 12.29 3.76933 12.3905 3.83087 12.4824C3.95595 12.669 4.05672 12.8193 4.00629 12.8448C3.94537 12.8755 3.52082 12.589 3.16302 12.1911C3.02492 12.0376 2.89115 11.8711 2.76685 11.7165C2.49476 11.3779 2.26808 11.0959 2.14083 11.1293C1.98776 11.1695 2.10355 11.4852 2.2737 11.7891C2.35326 11.9312 2.44686 12.0759 2.52791 12.2011C2.65393 12.396 2.74959 12.5438 2.71488 12.562C2.66808 12.5865 2.25617 12.1848 1.97641 11.6787C1.81024 11.378 1.67071 11.0458 1.55774 10.7768C1.43524 10.4851 1.34399 10.2678 1.2839 10.2459C1.07513 10.1699 1.07513 10.5956 1.15886 11.21C1.16978 11.2901 1.18605 11.3741 1.20607 11.4597C2.01807 14.087 4.51248 16 7.46371 16C11.0736 16 14 13.1379 14 9.60723C14 6.24688 11.3491 3.49209 7.98098 3.2342C7.98523 3.07589 8.06785 2.76197 8.06785 2.76197C8.06785 2.76197 8.66245 1.32335 8.69387 1.01594C8.69596 0.995532 8.69843 0.973361 8.70106 0.949747C8.73812 0.61759 8.80701 0 8.2757 0C7.99195 0 7.86 0.211082 7.70909 0.452497C7.65115 0.545176 7.59043 0.642326 7.51724 0.733719C6.99012 1.39199 6.10372 2.21403 5.60113 2.65197C4.53882 3.57764 3.49657 4.33839 2.88871 4.78207L2.88871 4.78207L2.88869 4.78208C2.61221 4.98389 2.42561 5.12009 2.36787 5.17638C1.93266 5.60063 0.372285 8.4152 0.372285 8.4152C0.372285 8.4152 -0.132326 9.3182 0.0470341 9.50134C0.226394 9.68447 0.658917 9.6425 0.658917 9.6425C0.658917 9.6425 6.46956 8.30948 6.98979 8.20433C7.12985 8.17603 7.22872 8.1597 7.30464 8.14716C7.51073 8.11312 7.54773 8.10701 7.78042 7.96505ZM3.67207 6.25199C3.36018 6.54847 2.84289 7.25614 2.84289 7.25614C2.84289 7.25614 3.80427 7.31536 4.33375 6.81206C4.86323 6.30876 4.74191 5.45103 4.74191 5.45103C4.74191 5.45103 3.98397 5.95552 3.67207 6.25199Z" fill="white"/>
</symbol>


<symbol id="electric-type" width="30" height="30" viewBox="0 0 10 15" fill="none" xmlns="http://www.w3.org/2000/svg">
<path fill-rule="evenodd" clip-rule="evenodd" d="M1.96317 0.583663C1.86431 0.297964 2.0765 0 2.37882 0H7.08602C7.27884 0 7.44917 0.125587 7.50619 0.309782L9.82361 7.79702C9.9112 8.08001 9.69968 8.3669 9.40345 8.3669H6.52212C6.37615 8.3669 6.27069 8.5065 6.31058 8.64691L7.75355 13.7264C7.88674 14.1953 7.27185 14.5005 6.97893 14.111L0.529514 5.53426C0.311532 5.24438 0.518351 4.83009 0.881045 4.83009H3.12382C3.27499 4.83009 3.38108 4.68111 3.33165 4.53826L1.96317 0.583663Z" fill="white"/>
</symbol>


<symbol id="ghost-type" width="30" height="30" viewBox="0 0 10 15" fill="none" xmlns="http://www.w3.org/2000/svg">
<path fill-rule="evenodd" clip-rule="evenodd" d="M1.96317 0.583663C1.86431 0.297964 2.0765 0 2.37882 0H7.08602C7.27884 0 7.44917 0.125587 7.50619 0.309782L9.82361 7.79702C9.9112 8.08001 9.69968 8.3669 9.40345 8.3669H6.52212C6.37615 8.3669 6.27069 8.5065 6.31058 8.64691L7.75355 13.7264C7.88674 14.1953 7.27185 14.5005 6.97893 14.111L0.529514 5.53426C0.311532 5.24438 0.518351 4.83009 0.881045 4.83009H3.12382C3.27499 4.83009 3.38108 4.68111 3.33165 4.53826L1.96317 0.583663Z" fill="white"/>
</symbol>


<symbol id="grass-type" width="30" height="30" viewBox="0 0 14 15" fill="none" xmlns="http://www.w3.org/2000/svg">
<path fill-rule="evenodd" clip-rule="evenodd" d="M2.68533 13.4986C5.1534 15.0651 8.84693 14.43 11.4489 11.8281C14.3778 8.89914 14.8144 4.58703 12.4241 2.1967C10.0338 -0.193627 5.72167 0.242998 2.79274 3.17193C-0.136194 6.10086 -0.572819 10.413 1.81751 12.8033C1.86277 12.8486 1.90872 12.8928 1.95534 12.936L3.93432 10.4942L3.93432 7.79854L4.59312 9.82552L6.0143 8.22339L5.73692 6.38755L6.52486 7.49944L8.5653 5.21075L7.13081 7.79854L8.5653 8.22339L6.75118 8.62079L5.15748 10.2435L7.66521 10.4942L4.59312 11.1574L2.68533 13.4986Z" fill="white"/>
</symbol>


<symbol id="psychic-type" width="30" height="30" viewBox="0 0 14 14" fill="none" xmlns="http://www.w3.org/2000/svg">
<path fill-rule="evenodd" clip-rule="evenodd" d="M12.4745 11.6261C12.4745 11.6261 10.7092 13.042 7.19629 12.456C4.53109 12.0115 3.10961 9.07355 3.10961 7.49436C3.10961 3.75016 5.88079 2.89811 7.75429 2.89811C9.62779 2.89811 10.85 4.72467 10.85 6.1389C10.85 7.55312 9.84972 8.79008 8.29314 8.79008C6.73657 8.79008 6.27555 7.69728 6.27555 6.69261C6.27555 5.68794 7.08841 5.33397 7.82971 5.33397C8.57102 5.33397 8.82487 5.96687 8.82487 6.51083C8.82487 7.05479 8.40282 7.24958 8.05079 7.24958C7.69876 7.24958 7.66394 7.07199 7.52922 6.88535C7.39449 6.69872 7.70105 5.99226 7.19629 5.99226C6.69153 5.99226 6.59744 6.80442 6.59744 6.80442C6.59744 6.80442 6.78146 8.37212 8.29314 8.34506C9.80483 8.31799 10.522 7.14933 10.3136 5.99226C10.1052 4.83519 8.98223 3.60568 7.01145 3.85413C5.04068 4.10257 4.23602 6.09386 4.5907 8.22187C4.94538 10.3499 7.49472 11.5829 9.49916 11.1393C11.5036 10.6957 13.5 9.24454 13.5 5.56534C13.5 1.88614 10.3136 -0.325395 6.51401 0.0390779C2.71446 0.403551 0.35587 3.72536 0.506841 7.7166C0.657811 11.7078 4.44502 13.8816 7.64749 13.9936C10.85 14.1057 12.8132 12.2518 12.8132 12.2518C12.8132 12.2518 13.2547 11.8581 13.0816 11.5506C12.9085 11.2432 12.4745 11.6261 12.4745 11.6261Z" fill="white"/>
</symbol>


<symbol id="rock-type" width="30" height="30" viewBox="0 0 14 11" fill="none" xmlns="http://www.w3.org/2000/svg">
<path fill-rule="evenodd" clip-rule="evenodd" d="M10.8536 5.26577C10.8242 5.22581 10.8124 5.17565 10.8208 5.1268L11.674 0.151783C11.689 0.0640971 11.7661 0 11.8551 0C11.9348 0 12.0062 0.0516599 12.0302 0.127647L13.9618 6.24351C13.9848 6.31623 13.9601 6.39556 13.9 6.44249L12.661 7.40986C12.5799 7.47324 12.4624 7.45701 12.4014 7.37398L10.8536 5.26577ZM0 8.52136C0 8.60036 0.0507964 8.67042 0.125891 8.69497L2.97163 9.62543C3.02584 9.64316 3.08523 9.63454 3.13217 9.60213L9.81797 4.98643C9.85957 4.95771 9.88741 4.91304 9.89486 4.86304L10.5847 0.234659C10.6011 0.124277 10.5156 0.0250775 10.404 0.0250775H4.65129C4.59691 0.0250775 4.54537 0.0493027 4.51067 0.0911646L0.042033 5.48189C0.014867 5.51466 0 5.55589 0 5.59846V8.52136ZM4.32705 9.90705L7.57554 10.9712C7.63088 10.9893 7.69154 10.9799 7.73886 10.946L11.4951 8.25163C11.5753 8.1941 11.5953 8.08325 11.5402 8.00133L10.2482 6.07869C10.1916 5.99446 10.0772 5.97251 9.99349 6.02982L4.32705 9.90705Z" fill="white"/>
</symbol>

<!-- /// -->

<symbol id="fairy-type" width="30" height="30" viewBox="0 0 16 16" fill="none" xmlns="http://www.w3.org/2000/svg">
<path fill-rule="evenodd" clip-rule="evenodd" d="M3.77011 12.4502L5.84481 11.8486L7.78716 15.4001C7.87918 15.5683 8.12082 15.5683 8.21284 15.4001L10.1552 11.8486L12.2299 12.4502C12.4141 12.5036 12.5845 12.3323 12.5301 12.1484L11.9306 10.1223L15.3738 8.23914C15.542 8.14712 15.542 7.90548 15.3738 7.81346L11.8991 5.91312L12.5301 3.78059C12.5845 3.5967 12.4141 3.42536 12.2299 3.47877L10.0968 4.09726L8.21284 0.65253C8.12082 0.484282 7.87918 0.484282 7.78716 0.65253L5.90317 4.09726L3.77011 3.47877C3.58593 3.42536 3.41553 3.5967 3.46993 3.78059L4.10086 5.91312L0.626232 7.81346C0.457984 7.90548 0.457984 8.14712 0.626232 8.23914L4.06938 10.1223L3.46993 12.1484C3.41553 12.3323 3.58593 12.5036 3.77011 12.4502ZM5.66489 8.25947L7.04997 9.017L7.8075 10.4021C7.89952 10.5703 8.14116 10.5703 8.23318 10.4021L8.9907 9.017L10.3758 8.25947C10.544 8.16746 10.544 7.92581 10.3758 7.8338L8.9907 7.07627L8.23318 5.69119C8.14116 5.52294 7.89952 5.52294 7.8075 5.69119L7.04997 7.07627L5.66489 7.8338C5.49664 7.92581 5.49664 8.16746 5.66489 8.25947Z" fill="white"/>
</symbol>


<symbol id="fighting-type" width="30" height="30" viewBox="0 0 14 15" fill="none" xmlns="http://www.w3.org/2000/svg">
<path fill-rule="evenodd" clip-rule="evenodd" d="M2.08692 1.24704C2.26845 0.530314 2.91775 0 3.69091 0C4.27328 0 4.78537 0.30088 5.08022 0.75567C5.12571 0.751915 5.17172 0.75 5.21818 0.75C5.3255 0.75 5.43043 0.760217 5.53205 0.779732C5.83423 0.453909 6.26603 0.25 6.74545 0.25C7.42674 0.25 8.01185 0.661773 8.26548 1.25002L8.27273 1.25C8.39038 1.25 8.50516 1.26228 8.61587 1.28563C8.88082 1.10536 9.20083 1 9.54545 1C10.2607 1 10.8699 1.4538 11.1009 2.08918C11.2263 2.1322 11.3448 2.18985 11.4545 2.2601C11.7117 2.09545 12.0174 2 12.3455 2C13.2592 2 14 2.74077 14 3.65455V8.625V8.70564C14 8.73601 13.9992 8.76626 13.9975 8.79636C13.8978 12.238 10.8031 15 7 15C3.13401 15 0 12.1458 0 8.625C0 6.9255 0.730222 5.38133 1.92051 4.23851C1.91755 5.89536 1.94553 7.60824 2.07453 7.57884C2.41996 7.50011 2.15007 2.36831 2.08692 1.24704Z" fill="white"/>
</symbol>


<symbol id="ground-type" width="30" height="30" viewBox="0 0 16 11" fill="none" xmlns="http://www.w3.org/2000/svg">
<path fill-rule="evenodd" clip-rule="evenodd" d="M3.86832 10.9572C3.8074 10.9572 3.7648 10.8969 3.78513 10.8395L7.57383 0.134024C7.60226 0.053696 7.67822 0 7.76343 0H11.622C11.7075 0 11.7837 0.0541251 11.8119 0.134911L15.4919 10.6898C15.5375 10.8206 15.4404 10.9572 15.302 10.9572H3.86832ZM0.697785 11C0.557391 11 0.460194 10.8598 0.509439 10.7283L3.24776 3.41771C3.27718 3.33917 3.35224 3.28713 3.43611 3.28713H5.52888C5.66834 3.28713 5.76547 3.42562 5.71798 3.55675L3.07009 10.8674C3.04126 10.947 2.96566 11 2.88099 11H0.697785Z" fill="white"/>
</symbol>


<symbol id="ice-type" width="30" height="30" viewBox="0 0 18 16" fill="none" xmlns="http://www.w3.org/2000/svg">
<path fill-rule="evenodd" clip-rule="evenodd" d="M13.153 0.835725L13.2051 5.41341L9.21237 7.33009L9.16314 3.00789L13.153 0.835725Z" fill="white"/>
<path fill-rule="evenodd" clip-rule="evenodd" d="M17.1554 8.04902L13.2029 10.3098L9.24808 8.04544L13.2009 5.96914L17.1554 8.04902Z" fill="white"/>
<path fill-rule="evenodd" clip-rule="evenodd" d="M8.54507 8.04902L4.59255 10.3098L0.637702 8.04544L4.59051 5.96914L8.54507 8.04902Z" fill="white"/>
<path fill-rule="evenodd" clip-rule="evenodd" d="M4.54813 0.816966L8.65055 2.84874L8.54566 7.27643L4.67221 5.35805L4.54813 0.816966Z" fill="white"/>
<path fill-rule="evenodd" clip-rule="evenodd" d="M13.2646 15.2118L9.1622 13.18L9.26708 8.75231L13.1405 10.6707L13.2646 15.2118Z" fill="white"/>
<path fill-rule="evenodd" clip-rule="evenodd" d="M4.68982 15.253L4.63769 10.6753L8.63041 8.75862L8.67963 13.0808L4.68982 15.253Z" fill="white"/>
</symbol>

<symbol id="steel-type" width="30" height="30" viewBox="0 0 16 13" fill="none" xmlns="http://www.w3.org/2000/svg">
<path fill-rule="evenodd" clip-rule="evenodd" d="M0.551111 6.69187C0.482996 6.57563 0.482961 6.43166 0.551019 6.31538L4.13947 0.184346C4.20629 0.070168 4.32867 0 4.46096 0H11.5772C11.7101 0 11.833 0.0708405 11.8996 0.18589L15.4487 6.31692C15.5155 6.43242 15.5155 6.57486 15.4486 6.69033L11.8996 12.8143C11.833 12.9292 11.7102 13 11.5773 13H4.46084C4.32861 13 4.20629 12.9299 4.13944 12.8158L0.551111 6.69187ZM8 10C9.933 10 11.5 8.433 11.5 6.5C11.5 4.567 9.933 3 8 3C6.067 3 4.5 4.567 4.5 6.5C4.5 8.433 6.067 10 8 10Z" fill="white"/>
</symbol>


<symbol id="water-type" width="30" height="30" viewBox="0 0 10 16" fill="none" xmlns="http://www.w3.org/2000/svg">
<path fill-rule="evenodd" clip-rule="evenodd" d="M5 16C7.76142 16 10 12.5474 10 8.28839C10 4.02939 7.76142 0.576783 5 0.576783C2.23858 0.576783 0 4.02939 0 8.28839C0 12.5474 2.23858 16 5 16ZM4.1665 14.4031C1.62926 13.8479 2.06344 11.0373 2.06344 11.0373C2.06344 11.0373 2.75628 12.734 4.43759 13.2835C6.11891 13.8331 8.15074 13.0271 8.15074 13.0271C8.15074 13.0271 6.70373 14.9582 4.1665 14.4031Z" fill="white"/>
</symbol>


<symbol id="unknown-type"  width="30" height="30" viewBox="0 0 7 10" fill="none" xmlns="http://www.w3.org/2000/svg">
<path d="M0.876 1.98V0.756C0.876 0.716 0.888 0.68 0.912 0.648C0.944 0.615999 0.98 0.599999 1.02 0.599999H6.444C6.54 0.599999 6.588 0.651999 6.588 0.756V2.52C6.588 2.632 6.556 2.732 6.492 2.82L4.524 5.376C4.42 5.504 4.288 5.568 4.128 5.568H2.604C2.556 5.568 2.52 5.552 2.496 5.52C2.48 5.48 2.488 5.44 2.52 5.4L5.028 2.124H1.02C0.98 2.124 0.944 2.112 0.912 2.088C0.888 2.056 0.876 2.02 0.876 1.98ZM2.484 8.856V7.524C2.484 7.484 2.496 7.452 2.52 7.428C2.552 7.396 2.588 7.38 2.628 7.38H3.984C4.08 7.38 4.128 7.428 4.128 7.524V8.856C4.128 8.96 4.08 9.012 3.984 9.012H2.628C2.588 9.012 2.552 8.996 2.52 8.964C2.496 8.932 2.484 8.896 2.484 8.856Z" fill="white"/>
</symbol>

<symbol id="shadow-type" width="30" height="30" viewBox="0 0 7 10" fill="none" xmlns="http://www.w3.org/2000/svg">
<path d="M0.876 1.98V0.756C0.876 0.716 0.888 0.68 0.912 0.648C0.944 0.615999 0.98 0.599999 1.02 0.599999H6.444C6.54 0.599999 6.588 0.651999 6.588 0.756V2.52C6.588 2.632 6.556 2.732 6.492 2.82L4.524 5.376C4.42 5.504 4.288 5.568 4.128 5.568H2.604C2.556 5.568 2.52 5.552 2.496 5.52C2.48 5.48 2.488 5.44 2.52 5.4L5.028 2.124H1.02C0.98 2.124 0.944 2.112 0.912 2.088C0.888 2.056 0.876 2.02 0.876 1.98ZM2.484 8.856V7.524C2.484 7.484 2.496 7.452 2.52 7.428C2.552 7.396 2.588 7.38 2.628 7.38H3.984C4.08 7.38 4.128 7.428 4.128 7.524V8.856C4.128 8.96 4.08 9.012 3.984 9.012H2.628C2.588 9.012 2.552 8.996 2.52 8.964C2.496 8.932 2.484 8.896 2.484 8.856Z" fill="white"/>
</symbol>



</svg>

