
<svg width="46" height="46" viewBox="0 0 46 46" fill="none" xmlns="http://www.w3.org/2000/svg">
    <path d="M1 22.2903C1 19.4945 1.57351 16.7259 2.68815 14.1429C3.80278 11.5597 5.43637 9.21274 7.49577 7.2358C11.6545 3.24307 17.2955 1 23.1774 1C29.0593 1 34.7004 3.24307 38.8591 7.2358C43.0182 11.2285 45.3548 16.6436 45.3548 22.2903H31.494C31.494 20.1728 30.6179 18.1423 29.058 16.6448C27.4985 15.1477 25.3832 14.3064 23.1774 14.3064C20.9717 14.3064 18.8564 15.1477 17.2964 16.6448C15.7369 18.1423 14.8609 20.1728 14.8609 22.2903H1Z" fill="#5F2EEA" stroke="#14142B" stroke-width="0.01"/>
    <path d="M23.1779 29.3871C26.6074 29.3871 29.3876 26.607 29.3876 23.1775C29.3876 19.7479 26.6074 16.9678 23.1779 16.9678C19.7484 16.9678 16.9683 19.7479 16.9683 23.1775C16.9683 26.607 19.7484 29.3871 23.1779 29.3871Z" fill="#2A00A2"/>
    <path d="M1 24.0646C1 29.7113 3.33662 35.1264 7.49577 39.1193C11.6545 43.1119 17.2955 45.3549 23.1774 45.3549C29.0593 45.3549 34.7004 43.1119 38.8591 39.1193C43.0182 35.1264 45.3548 29.7113 45.3548 24.0646H31.494C31.494 26.1821 30.6179 28.2127 29.058 29.7101C27.4985 31.2072 25.3832 32.0485 23.1774 32.0485C20.9717 32.0485 18.8564 31.2072 17.2964 29.7101C15.7369 28.2127 14.8609 26.1821 14.8609 24.0646H1Z" fill="#5F2EEA" stroke="#5F2EEA" stroke-width="0.01"/>
</svg>

